# xmcd CD database file
#
# Track frame offsets:
#	150
#	2882
#	25380
#	37715
#	53102
#	68790
#	78371
#	95860
#	97560
#	121819
#	140993
#	157396
#	178526
#	181539
#
# Disc length: 2654 seconds
#
# Revision: 1
# Processed by: cddbd v1.5.2PL0 Copyright (c) Steve Scherf et al.
# Submitted via: CDex 1.75
#
DISCID=af0a5c0e
DTITLE=Juanita - The Gift
DYEAR=2007
DGENRE=Country
TTITLE0=The Gift... Forward
TTITLE1=Over The Rainbow
TTITLE2=It Came Upon The Midnight Clear
TTITLE3=Let It Snow
TTITLE4=O Little Town Of Bethlehem
TTITLE5=Silver Bells
TTITLE6=Joy To The World
TTITLE7=Silent Night
TTITLE8=Little Drummer Boy
TTITLE9=Do You Hear What I Hear?
TTITLE10=Sounds Of Christmas
TTITLE11=The First Noel
TTITLE12=O Holy Night
TTITLE13=The Gift
EXTD=YEAR: 2007
EXTT0=
EXTT1=
EXTT2=
EXTT3=
EXTT4=
EXTT5=
EXTT6=
EXTT7=
EXTT8=
EXTT9=
EXTT10=
EXTT11=
EXTT12=
EXTT13=
PLAYORDER=
